<mxfile host="app.diagrams.net" agent="Mozilla/5.0 (Windows NT 10.0; Win64; x64) AppleWebKit/537.36 (KHTML, like Gecko) Chrome/130.0.0.0 Safari/537.36" version="24.8.3" pages="2">
  <diagram name="Page-1" id="DtJo75ZNy9iMemWSUQGx">
    <mxGraphModel dx="2240" dy="920" grid="1" gridSize="10" guides="1" tooltips="1" connect="1" arrows="1" fold="1" page="1" pageScale="1" pageWidth="827" pageHeight="1169" math="0" shadow="0">
      <root>
        <mxCell id="0" />
        <mxCell id="1" parent="0" />
        <mxCell id="MAlRhFrGBA3OUkSqN0sr-2" value="User" style="swimlane;fontStyle=2;align=center;verticalAlign=top;childLayout=stackLayout;horizontal=1;startSize=26;horizontalStack=0;resizeParent=1;resizeLast=0;collapsible=1;marginBottom=0;rounded=0;shadow=0;strokeWidth=1;" vertex="1" parent="1">
          <mxGeometry x="90" y="320" width="270" height="200" as="geometry">
            <mxRectangle x="230" y="140" width="160" height="26" as="alternateBounds" />
          </mxGeometry>
        </mxCell>
        <mxCell id="MAlRhFrGBA3OUkSqN0sr-3" value="id_user  INT NOT NULL AUTO_INCREMENT PK&#xa;&#xa;email VARCHAR(50) not null&#xa;&#xa;" style="text;align=left;verticalAlign=top;spacingLeft=4;spacingRight=4;overflow=hidden;rotatable=0;points=[[0,0.5],[1,0.5]];portConstraint=eastwest;" vertex="1" parent="MAlRhFrGBA3OUkSqN0sr-2">
          <mxGeometry y="26" width="270" height="26" as="geometry" />
        </mxCell>
        <mxCell id="MAlRhFrGBA3OUkSqN0sr-4" value="email VARCHAR (50) not null unique&#xa;&#xa;password VARCHAR(50) not null&#xa;" style="text;align=left;verticalAlign=top;spacingLeft=4;spacingRight=4;overflow=hidden;rotatable=0;points=[[0,0.5],[1,0.5]];portConstraint=eastwest;rounded=0;shadow=0;html=0;" vertex="1" parent="MAlRhFrGBA3OUkSqN0sr-2">
          <mxGeometry y="52" width="270" height="26" as="geometry" />
        </mxCell>
        <mxCell id="MAlRhFrGBA3OUkSqN0sr-5" value="password VARCHAR (50) not null" style="text;html=1;align=center;verticalAlign=middle;resizable=0;points=[];autosize=1;strokeColor=none;fillColor=none;" vertex="1" parent="MAlRhFrGBA3OUkSqN0sr-2">
          <mxGeometry y="78" width="270" height="30" as="geometry" />
        </mxCell>
        <mxCell id="MAlRhFrGBA3OUkSqN0sr-6" value="name VARCHAR (50) not null" style="text;html=1;align=center;verticalAlign=middle;resizable=0;points=[];autosize=1;strokeColor=none;fillColor=none;" vertex="1" parent="MAlRhFrGBA3OUkSqN0sr-2">
          <mxGeometry y="108" width="270" height="30" as="geometry" />
        </mxCell>
        <mxCell id="MAlRhFrGBA3OUkSqN0sr-7" value="firstname VARCHAR (50) not nul" style="text;html=1;align=center;verticalAlign=middle;resizable=0;points=[];autosize=1;strokeColor=none;fillColor=none;" vertex="1" parent="MAlRhFrGBA3OUkSqN0sr-2">
          <mxGeometry y="138" width="270" height="30" as="geometry" />
        </mxCell>
        <mxCell id="MAlRhFrGBA3OUkSqN0sr-8" value="role" style="swimlane;fontStyle=0;align=center;verticalAlign=top;childLayout=stackLayout;horizontal=1;startSize=26;horizontalStack=0;resizeParent=1;resizeLast=0;collapsible=1;marginBottom=0;rounded=0;shadow=0;strokeWidth=1;" vertex="1" parent="1">
          <mxGeometry x="111.5" y="710" width="268.5" height="80" as="geometry">
            <mxRectangle x="340" y="380" width="170" height="26" as="alternateBounds" />
          </mxGeometry>
        </mxCell>
        <mxCell id="MAlRhFrGBA3OUkSqN0sr-9" value="id_role INT NOT NULL AUTO-INCREMENT PK" style="text;align=left;verticalAlign=top;spacingLeft=4;spacingRight=4;overflow=hidden;rotatable=0;points=[[0,0.5],[1,0.5]];portConstraint=eastwest;" vertex="1" parent="MAlRhFrGBA3OUkSqN0sr-8">
          <mxGeometry y="26" width="268.5" height="24" as="geometry" />
        </mxCell>
        <mxCell id="MAlRhFrGBA3OUkSqN0sr-10" value="label VARCHAR(50) not null&amp;nbsp;" style="text;html=1;align=center;verticalAlign=middle;resizable=0;points=[];autosize=1;strokeColor=none;fillColor=none;" vertex="1" parent="MAlRhFrGBA3OUkSqN0sr-8">
          <mxGeometry y="50" width="268.5" height="30" as="geometry" />
        </mxCell>
        <mxCell id="MAlRhFrGBA3OUkSqN0sr-11" value="" style="shape=lineEllipse;perimeter=ellipsePerimeter;whiteSpace=wrap;html=1;backgroundOutline=1;" vertex="1" parent="1">
          <mxGeometry x="130" y="560" width="146" height="85" as="geometry" />
        </mxCell>
        <mxCell id="MAlRhFrGBA3OUkSqN0sr-12" value="possède" style="text;strokeColor=none;align=center;fillColor=none;html=1;verticalAlign=middle;whiteSpace=wrap;rounded=0;fontSize=16;" vertex="1" parent="1">
          <mxGeometry x="173" y="565" width="60" height="30" as="geometry" />
        </mxCell>
        <mxCell id="MAlRhFrGBA3OUkSqN0sr-13" value="" style="shape=lineEllipse;perimeter=ellipsePerimeter;whiteSpace=wrap;html=1;backgroundOutline=1;" vertex="1" parent="1">
          <mxGeometry x="1090" y="540" width="146" height="80" as="geometry" />
        </mxCell>
        <mxCell id="MAlRhFrGBA3OUkSqN0sr-14" value="" style="shape=lineEllipse;perimeter=ellipsePerimeter;whiteSpace=wrap;html=1;backgroundOutline=1;" vertex="1" parent="1">
          <mxGeometry x="720" y="610" width="110" height="80" as="geometry" />
        </mxCell>
        <mxCell id="MAlRhFrGBA3OUkSqN0sr-15" value="" style="shape=lineEllipse;perimeter=ellipsePerimeter;whiteSpace=wrap;html=1;backgroundOutline=1;" vertex="1" parent="1">
          <mxGeometry x="430" y="697" width="110" height="93" as="geometry" />
        </mxCell>
        <mxCell id="MAlRhFrGBA3OUkSqN0sr-16" value="1,1" style="endArrow=none;html=1;rounded=0;fontSize=12;startSize=8;endSize=8;curved=1;entryX=0.457;entryY=-0.02;entryDx=0;entryDy=0;entryPerimeter=0;exitX=0.5;exitY=1;exitDx=0;exitDy=0;" edge="1" parent="1" source="MAlRhFrGBA3OUkSqN0sr-14" target="MAlRhFrGBA3OUkSqN0sr-24">
          <mxGeometry width="50" height="50" relative="1" as="geometry">
            <mxPoint x="730" y="690" as="sourcePoint" />
            <mxPoint x="730" y="780" as="targetPoint" />
          </mxGeometry>
        </mxCell>
        <mxCell id="MAlRhFrGBA3OUkSqN0sr-17" value="" style="endArrow=none;html=1;rounded=0;fontSize=12;startSize=8;endSize=8;curved=1;entryX=0.765;entryY=1.083;entryDx=0;entryDy=0;entryPerimeter=0;" edge="1" parent="1" target="MAlRhFrGBA3OUkSqN0sr-30">
          <mxGeometry width="50" height="50" relative="1" as="geometry">
            <mxPoint x="770" y="610" as="sourcePoint" />
            <mxPoint x="770" y="480" as="targetPoint" />
          </mxGeometry>
        </mxCell>
        <mxCell id="MAlRhFrGBA3OUkSqN0sr-18" value="0,n" style="edgeLabel;html=1;align=center;verticalAlign=middle;resizable=0;points=[];fontSize=12;" connectable="0" vertex="1" parent="MAlRhFrGBA3OUkSqN0sr-17">
          <mxGeometry y="-4" relative="1" as="geometry">
            <mxPoint as="offset" />
          </mxGeometry>
        </mxCell>
        <mxCell id="MAlRhFrGBA3OUkSqN0sr-19" value="" style="endArrow=none;html=1;rounded=0;fontSize=12;startSize=8;endSize=8;curved=1;exitX=0.792;exitY=1.067;exitDx=0;exitDy=0;exitPerimeter=0;" edge="1" parent="1" target="MAlRhFrGBA3OUkSqN0sr-15">
          <mxGeometry width="50" height="50" relative="1" as="geometry">
            <mxPoint x="290.0799999999999" y="520.01" as="sourcePoint" />
            <mxPoint x="360" y="760" as="targetPoint" />
          </mxGeometry>
        </mxCell>
        <mxCell id="MAlRhFrGBA3OUkSqN0sr-20" value="0,n" style="edgeLabel;html=1;align=center;verticalAlign=middle;resizable=0;points=[];fontSize=12;" connectable="0" vertex="1" parent="MAlRhFrGBA3OUkSqN0sr-19">
          <mxGeometry x="-0.0271" y="1" relative="1" as="geometry">
            <mxPoint as="offset" />
          </mxGeometry>
        </mxCell>
        <mxCell id="MAlRhFrGBA3OUkSqN0sr-21" value="" style="endArrow=none;html=1;rounded=0;fontSize=12;startSize=8;endSize=8;curved=1;exitX=0.562;exitY=0.965;exitDx=0;exitDy=0;exitPerimeter=0;" edge="1" parent="1" source="MAlRhFrGBA3OUkSqN0sr-11">
          <mxGeometry width="50" height="50" relative="1" as="geometry">
            <mxPoint x="210" y="650" as="sourcePoint" />
            <mxPoint x="210" y="710" as="targetPoint" />
          </mxGeometry>
        </mxCell>
        <mxCell id="MAlRhFrGBA3OUkSqN0sr-22" value="0,n" style="edgeLabel;html=1;align=center;verticalAlign=middle;resizable=0;points=[];fontSize=12;" connectable="0" vertex="1" parent="MAlRhFrGBA3OUkSqN0sr-21">
          <mxGeometry y="3" relative="1" as="geometry">
            <mxPoint as="offset" />
          </mxGeometry>
        </mxCell>
        <mxCell id="MAlRhFrGBA3OUkSqN0sr-23" value="rédige" style="text;strokeColor=none;fillColor=none;html=1;align=center;verticalAlign=middle;whiteSpace=wrap;rounded=0;fontSize=16;" vertex="1" parent="1">
          <mxGeometry x="455" y="710" width="60" height="30" as="geometry" />
        </mxCell>
        <mxCell id="MAlRhFrGBA3OUkSqN0sr-24" value="RAPPORT_ANIMAL" style="swimlane;fontStyle=0;align=center;verticalAlign=top;childLayout=stackLayout;horizontal=1;startSize=26;horizontalStack=0;resizeParent=1;resizeLast=0;collapsible=1;marginBottom=0;rounded=0;shadow=0;strokeWidth=1;" vertex="1" parent="1">
          <mxGeometry x="620" y="790" width="335" height="210" as="geometry">
            <mxRectangle x="130" y="380" width="160" height="26" as="alternateBounds" />
          </mxGeometry>
        </mxCell>
        <mxCell id="MAlRhFrGBA3OUkSqN0sr-25" value="&#xa;&#xa;type de nourriture VARCHAR NOT NULL&#xa;grammage de nourriture VARCHAR NOT NULL&#xa;&#xa;&#xa;" style="text;align=left;verticalAlign=top;spacingLeft=4;spacingRight=4;overflow=hidden;rotatable=0;points=[[0,0.5],[1,0.5]];portConstraint=eastwest;rounded=0;shadow=0;html=0;" vertex="1" parent="MAlRhFrGBA3OUkSqN0sr-24">
          <mxGeometry y="26" width="335" height="84" as="geometry" />
        </mxCell>
        <mxCell id="MAlRhFrGBA3OUkSqN0sr-26" value="&lt;div&gt;&lt;br&gt;&lt;/div&gt;&lt;div&gt;&lt;br&gt;&lt;/div&gt;id_sante INT NOT NULL&amp;nbsp; AUTO_INCREMENT PK&lt;div&gt;DATE VARCHAR not null&lt;br&gt;&lt;div&gt;&lt;span style=&quot;text-align: left;&quot;&gt;etat VARCHAR (50) not null&lt;/span&gt;&lt;span style=&quot;background-color: initial;&quot;&gt;&lt;br&gt;&lt;/span&gt;&lt;/div&gt;&lt;div&gt;&lt;span style=&quot;background-color: initial;&quot;&gt;detail VARCHAR&lt;/span&gt;&lt;/div&gt;&lt;/div&gt;" style="text;html=1;align=center;verticalAlign=middle;resizable=0;points=[];autosize=1;strokeColor=none;fillColor=none;" vertex="1" parent="MAlRhFrGBA3OUkSqN0sr-24">
          <mxGeometry y="110" width="335" height="100" as="geometry" />
        </mxCell>
        <mxCell id="MAlRhFrGBA3OUkSqN0sr-27" value="ANIMAL" style="swimlane;fontStyle=0;align=center;verticalAlign=top;childLayout=stackLayout;horizontal=1;startSize=26;horizontalStack=0;resizeParent=1;resizeLast=0;collapsible=1;marginBottom=0;rounded=0;shadow=0;strokeWidth=1;" vertex="1" parent="1">
          <mxGeometry x="570" y="335.5" width="260" height="140" as="geometry">
            <mxRectangle x="130" y="380" width="160" height="26" as="alternateBounds" />
          </mxGeometry>
        </mxCell>
        <mxCell id="MAlRhFrGBA3OUkSqN0sr-28" value="id_animal INT  AUTO-INCREMENT not null PK" style="text;align=left;verticalAlign=top;spacingLeft=4;spacingRight=4;overflow=hidden;rotatable=0;points=[[0,0.5],[1,0.5]];portConstraint=eastwest;" vertex="1" parent="MAlRhFrGBA3OUkSqN0sr-27">
          <mxGeometry y="26" width="260" height="26" as="geometry" />
        </mxCell>
        <mxCell id="MAlRhFrGBA3OUkSqN0sr-29" value="prenom  VARCHAR (50) not null&#xa;" style="text;align=left;verticalAlign=top;spacingLeft=4;spacingRight=4;overflow=hidden;rotatable=0;points=[[0,0.5],[1,0.5]];portConstraint=eastwest;rounded=0;shadow=0;html=0;" vertex="1" parent="MAlRhFrGBA3OUkSqN0sr-27">
          <mxGeometry y="52" width="260" height="58" as="geometry" />
        </mxCell>
        <mxCell id="MAlRhFrGBA3OUkSqN0sr-30" value="famille VARCHAR NOT NULL" style="text;align=left;verticalAlign=top;spacingLeft=4;spacingRight=4;overflow=hidden;rotatable=0;points=[[0,0.5],[1,0.5]];portConstraint=eastwest;" vertex="1" parent="MAlRhFrGBA3OUkSqN0sr-27">
          <mxGeometry y="110" width="260" height="30" as="geometry" />
        </mxCell>
        <mxCell id="MAlRhFrGBA3OUkSqN0sr-31" value="obtient" style="text;strokeColor=none;fillColor=none;html=1;align=center;verticalAlign=middle;whiteSpace=wrap;rounded=0;fontSize=16;" vertex="1" parent="1">
          <mxGeometry x="745" y="620" width="60" height="30" as="geometry" />
        </mxCell>
        <mxCell id="MAlRhFrGBA3OUkSqN0sr-32" value="HABITAT" style="swimlane;fontStyle=0;align=center;verticalAlign=top;childLayout=stackLayout;horizontal=1;startSize=26;horizontalStack=0;resizeParent=1;resizeLast=0;collapsible=1;marginBottom=0;rounded=0;shadow=0;strokeWidth=1;" vertex="1" parent="1">
          <mxGeometry x="1050" y="350" width="270" height="140" as="geometry">
            <mxRectangle x="130" y="380" width="160" height="26" as="alternateBounds" />
          </mxGeometry>
        </mxCell>
        <mxCell id="MAlRhFrGBA3OUkSqN0sr-33" value="id_habitat INT AUTO-INCREMENT  not null PK" style="text;align=left;verticalAlign=top;spacingLeft=4;spacingRight=4;overflow=hidden;rotatable=0;points=[[0,0.5],[1,0.5]];portConstraint=eastwest;" vertex="1" parent="MAlRhFrGBA3OUkSqN0sr-32">
          <mxGeometry y="26" width="270" height="26" as="geometry" />
        </mxCell>
        <mxCell id="MAlRhFrGBA3OUkSqN0sr-34" value="nom  VARCHAR (50) not null&#xa;&#xa;description VARCHAR (255) not null" style="text;align=left;verticalAlign=top;spacingLeft=4;spacingRight=4;overflow=hidden;rotatable=0;points=[[0,0.5],[1,0.5]];portConstraint=eastwest;rounded=0;shadow=0;html=0;" vertex="1" parent="MAlRhFrGBA3OUkSqN0sr-32">
          <mxGeometry y="52" width="270" height="58" as="geometry" />
        </mxCell>
        <mxCell id="MAlRhFrGBA3OUkSqN0sr-35" value="&lt;font style=&quot;font-size: 12px;&quot;&gt;detail VARCHAR (50)&lt;/font&gt;" style="text;html=1;align=center;verticalAlign=middle;resizable=0;points=[];autosize=1;strokeColor=none;fillColor=none;fontSize=16;" vertex="1" parent="MAlRhFrGBA3OUkSqN0sr-32">
          <mxGeometry y="110" width="270" height="30" as="geometry" />
        </mxCell>
        <mxCell id="MAlRhFrGBA3OUkSqN0sr-36" value="IMAGE" style="swimlane;fontStyle=0;align=center;verticalAlign=top;childLayout=stackLayout;horizontal=1;startSize=26;horizontalStack=0;resizeParent=1;resizeLast=0;collapsible=1;marginBottom=0;rounded=0;shadow=0;strokeWidth=1;" vertex="1" parent="1">
          <mxGeometry x="1091" y="670" width="389" height="110" as="geometry">
            <mxRectangle x="130" y="380" width="160" height="26" as="alternateBounds" />
          </mxGeometry>
        </mxCell>
        <mxCell id="MAlRhFrGBA3OUkSqN0sr-37" value="id_image VARCHAR(chemin dossier) AUTO-INCREMENT not null PK&#xa;&#xa;description  VARCHAR (50)&#xa;" style="text;align=left;verticalAlign=top;spacingLeft=4;spacingRight=4;overflow=hidden;rotatable=0;points=[[0,0.5],[1,0.5]];portConstraint=eastwest;" vertex="1" parent="MAlRhFrGBA3OUkSqN0sr-36">
          <mxGeometry y="26" width="389" height="54" as="geometry" />
        </mxCell>
        <mxCell id="MAlRhFrGBA3OUkSqN0sr-38" value="&lt;font style=&quot;font-size: 12px;&quot;&gt;image_data VARCHAR&lt;/font&gt;" style="text;html=1;align=center;verticalAlign=middle;resizable=0;points=[];autosize=1;strokeColor=none;fillColor=none;fontSize=16;" vertex="1" parent="MAlRhFrGBA3OUkSqN0sr-36">
          <mxGeometry y="80" width="389" height="30" as="geometry" />
        </mxCell>
        <mxCell id="MAlRhFrGBA3OUkSqN0sr-39" value="comporte" style="text;strokeColor=none;fillColor=none;html=1;align=center;verticalAlign=middle;whiteSpace=wrap;rounded=0;fontSize=16;" vertex="1" parent="1">
          <mxGeometry x="1133" y="540" width="60" height="30" as="geometry" />
        </mxCell>
        <mxCell id="MAlRhFrGBA3OUkSqN0sr-40" value="" style="endArrow=none;html=1;rounded=0;fontSize=12;startSize=8;endSize=8;curved=1;" edge="1" parent="1">
          <mxGeometry width="50" height="50" relative="1" as="geometry">
            <mxPoint x="1170" y="540" as="sourcePoint" />
            <mxPoint x="1170" y="490" as="targetPoint" />
          </mxGeometry>
        </mxCell>
        <mxCell id="MAlRhFrGBA3OUkSqN0sr-41" value="0,n" style="edgeLabel;html=1;align=center;verticalAlign=middle;resizable=0;points=[];fontSize=12;" connectable="0" vertex="1" parent="MAlRhFrGBA3OUkSqN0sr-40">
          <mxGeometry y="-3" relative="1" as="geometry">
            <mxPoint as="offset" />
          </mxGeometry>
        </mxCell>
        <mxCell id="MAlRhFrGBA3OUkSqN0sr-42" value="" style="endArrow=none;html=1;rounded=0;fontSize=12;startSize=8;endSize=8;curved=1;entryX=0.548;entryY=1.05;entryDx=0;entryDy=0;entryPerimeter=0;" edge="1" parent="1" target="MAlRhFrGBA3OUkSqN0sr-13">
          <mxGeometry width="50" height="50" relative="1" as="geometry">
            <mxPoint x="1170" y="670" as="sourcePoint" />
            <mxPoint x="990" y="520" as="targetPoint" />
          </mxGeometry>
        </mxCell>
        <mxCell id="MAlRhFrGBA3OUkSqN0sr-43" value="0,n" style="edgeLabel;html=1;align=center;verticalAlign=middle;resizable=0;points=[];fontSize=12;" connectable="0" vertex="1" parent="MAlRhFrGBA3OUkSqN0sr-42">
          <mxGeometry x="0.1554" relative="1" as="geometry">
            <mxPoint as="offset" />
          </mxGeometry>
        </mxCell>
        <mxCell id="MAlRhFrGBA3OUkSqN0sr-44" value="MCD modèle conceptuel de données&amp;nbsp;" style="text;strokeColor=none;fillColor=none;html=1;align=center;verticalAlign=middle;whiteSpace=wrap;rounded=0;fontSize=16;" vertex="1" parent="1">
          <mxGeometry x="420" y="280" width="300" height="30" as="geometry" />
        </mxCell>
        <mxCell id="MAlRhFrGBA3OUkSqN0sr-45" value="" style="endArrow=none;html=1;rounded=0;fontSize=12;startSize=8;endSize=8;curved=1;" edge="1" parent="1">
          <mxGeometry width="50" height="50" relative="1" as="geometry">
            <mxPoint x="210" y="560" as="sourcePoint" />
            <mxPoint x="210" y="520" as="targetPoint" />
          </mxGeometry>
        </mxCell>
        <mxCell id="MAlRhFrGBA3OUkSqN0sr-46" value="1;1" style="edgeLabel;html=1;align=center;verticalAlign=middle;resizable=0;points=[];fontSize=12;" connectable="0" vertex="1" parent="MAlRhFrGBA3OUkSqN0sr-45">
          <mxGeometry x="0.0344" y="-3" relative="1" as="geometry">
            <mxPoint as="offset" />
          </mxGeometry>
        </mxCell>
        <mxCell id="MAlRhFrGBA3OUkSqN0sr-47" value="" style="shape=lineEllipse;perimeter=ellipsePerimeter;whiteSpace=wrap;html=1;backgroundOutline=1;" vertex="1" parent="1">
          <mxGeometry x="864" y="370" width="146" height="80" as="geometry" />
        </mxCell>
        <mxCell id="MAlRhFrGBA3OUkSqN0sr-48" value="détient" style="text;strokeColor=none;fillColor=none;html=1;align=center;verticalAlign=middle;whiteSpace=wrap;rounded=0;fontSize=16;" vertex="1" parent="1">
          <mxGeometry x="907" y="380" width="60" height="30" as="geometry" />
        </mxCell>
        <mxCell id="MAlRhFrGBA3OUkSqN0sr-49" value="" style="endArrow=none;html=1;rounded=0;fontSize=12;startSize=8;endSize=8;curved=1;entryX=0;entryY=0.5;entryDx=0;entryDy=0;exitX=0.945;exitY=0.763;exitDx=0;exitDy=0;exitPerimeter=0;" edge="1" parent="1" source="MAlRhFrGBA3OUkSqN0sr-47" target="MAlRhFrGBA3OUkSqN0sr-34">
          <mxGeometry width="50" height="50" relative="1" as="geometry">
            <mxPoint x="980" y="570" as="sourcePoint" />
            <mxPoint x="1030" y="520" as="targetPoint" />
          </mxGeometry>
        </mxCell>
        <mxCell id="MAlRhFrGBA3OUkSqN0sr-50" value="0,n" style="edgeLabel;html=1;align=center;verticalAlign=middle;resizable=0;points=[];fontSize=12;" connectable="0" vertex="1" parent="MAlRhFrGBA3OUkSqN0sr-49">
          <mxGeometry x="-0.064" relative="1" as="geometry">
            <mxPoint as="offset" />
          </mxGeometry>
        </mxCell>
        <mxCell id="MAlRhFrGBA3OUkSqN0sr-51" value="" style="endArrow=none;html=1;rounded=0;fontSize=12;startSize=8;endSize=8;curved=1;exitX=1;exitY=0.5;exitDx=0;exitDy=0;entryX=0.062;entryY=0.763;entryDx=0;entryDy=0;entryPerimeter=0;" edge="1" parent="1" source="MAlRhFrGBA3OUkSqN0sr-29" target="MAlRhFrGBA3OUkSqN0sr-47">
          <mxGeometry width="50" height="50" relative="1" as="geometry">
            <mxPoint x="980" y="570" as="sourcePoint" />
            <mxPoint x="1030" y="520" as="targetPoint" />
          </mxGeometry>
        </mxCell>
        <mxCell id="MAlRhFrGBA3OUkSqN0sr-52" value="1,1" style="edgeLabel;html=1;align=center;verticalAlign=middle;resizable=0;points=[];fontSize=12;" connectable="0" vertex="1" parent="MAlRhFrGBA3OUkSqN0sr-51">
          <mxGeometry x="-0.0803" relative="1" as="geometry">
            <mxPoint as="offset" />
          </mxGeometry>
        </mxCell>
        <mxCell id="MAlRhFrGBA3OUkSqN0sr-53" value="" style="endArrow=none;html=1;rounded=0;exitX=0.996;exitY=0.967;exitDx=0;exitDy=0;exitPerimeter=0;" edge="1" parent="1" source="MAlRhFrGBA3OUkSqN0sr-5">
          <mxGeometry width="50" height="50" relative="1" as="geometry">
            <mxPoint x="360" y="410" as="sourcePoint" />
            <mxPoint x="570" y="426" as="targetPoint" />
            <Array as="points">
              <mxPoint x="450" y="426" />
            </Array>
          </mxGeometry>
        </mxCell>
        <mxCell id="MAlRhFrGBA3OUkSqN0sr-54" value="0,n" style="edgeLabel;html=1;align=center;verticalAlign=middle;resizable=0;points=[];" connectable="0" vertex="1" parent="MAlRhFrGBA3OUkSqN0sr-53">
          <mxGeometry x="-0.8161" y="-2" relative="1" as="geometry">
            <mxPoint x="4" y="-2" as="offset" />
          </mxGeometry>
        </mxCell>
        <mxCell id="MAlRhFrGBA3OUkSqN0sr-55" value="1,n" style="edgeLabel;html=1;align=center;verticalAlign=middle;resizable=0;points=[];" connectable="0" vertex="1" parent="MAlRhFrGBA3OUkSqN0sr-53">
          <mxGeometry x="0.8095" relative="1" as="geometry">
            <mxPoint as="offset" />
          </mxGeometry>
        </mxCell>
        <mxCell id="MAlRhFrGBA3OUkSqN0sr-56" value="" style="shape=lineEllipse;perimeter=ellipsePerimeter;whiteSpace=wrap;html=1;backgroundOutline=1;" vertex="1" parent="1">
          <mxGeometry x="380" y="350" width="146" height="90" as="geometry" />
        </mxCell>
        <mxCell id="MAlRhFrGBA3OUkSqN0sr-57" value="&lt;font style=&quot;font-size: 18px;&quot;&gt;nourrit&lt;/font&gt;" style="text;strokeColor=none;align=center;fillColor=none;html=1;verticalAlign=middle;whiteSpace=wrap;rounded=0;" vertex="1" parent="1">
          <mxGeometry x="420" y="360" width="60" height="30" as="geometry" />
        </mxCell>
        <mxCell id="MAlRhFrGBA3OUkSqN0sr-58" value="" style="endArrow=none;html=1;rounded=0;exitX=1;exitY=1;exitDx=0;exitDy=0;entryX=0.006;entryY=0.226;entryDx=0;entryDy=0;entryPerimeter=0;" edge="1" parent="1" source="MAlRhFrGBA3OUkSqN0sr-15" target="MAlRhFrGBA3OUkSqN0sr-25">
          <mxGeometry width="50" height="50" relative="1" as="geometry">
            <mxPoint x="530" y="780" as="sourcePoint" />
            <mxPoint x="620" y="820" as="targetPoint" />
            <Array as="points" />
          </mxGeometry>
        </mxCell>
        <mxCell id="MAlRhFrGBA3OUkSqN0sr-59" value="1,1" style="edgeLabel;html=1;align=center;verticalAlign=middle;resizable=0;points=[];" connectable="0" vertex="1" parent="MAlRhFrGBA3OUkSqN0sr-58">
          <mxGeometry x="-0.0159" y="1" relative="1" as="geometry">
            <mxPoint as="offset" />
          </mxGeometry>
        </mxCell>
        <mxCell id="MAlRhFrGBA3OUkSqN0sr-60" value="1,n" style="edgeLabel;html=1;align=center;verticalAlign=middle;resizable=0;points=[];" connectable="0" vertex="1" parent="MAlRhFrGBA3OUkSqN0sr-58">
          <mxGeometry x="0.0569" relative="1" as="geometry">
            <mxPoint as="offset" />
          </mxGeometry>
        </mxCell>
        <mxCell id="MAlRhFrGBA3OUkSqN0sr-61" value="PK : PRIMARY KEY" style="text;html=1;align=center;verticalAlign=middle;resizable=0;points=[];autosize=1;strokeColor=none;fillColor=none;" vertex="1" parent="1">
          <mxGeometry x="120" y="1048" width="130" height="30" as="geometry" />
        </mxCell>
        <mxCell id="MAlRhFrGBA3OUkSqN0sr-62" value="INT : INTEGER" style="text;html=1;align=center;verticalAlign=middle;resizable=0;points=[];autosize=1;strokeColor=none;fillColor=none;" vertex="1" parent="1">
          <mxGeometry x="120" y="1078" width="110" height="30" as="geometry" />
        </mxCell>
      </root>
    </mxGraphModel>
  </diagram>
  <diagram id="ec-sJmIjvznds4RcZIxa" name="Page-2">
    <mxGraphModel dx="1120" dy="460" grid="1" gridSize="10" guides="1" tooltips="1" connect="1" arrows="1" fold="1" page="1" pageScale="1" pageWidth="827" pageHeight="1169" math="0" shadow="0">
      <root>
        <mxCell id="0" />
        <mxCell id="1" parent="0" />
        <mxCell id="9t2GHWyr9sQp5O84g_Wf-1" value="User" style="swimlane;fontStyle=2;align=center;verticalAlign=top;childLayout=stackLayout;horizontal=1;startSize=26;horizontalStack=0;resizeParent=1;resizeLast=0;collapsible=1;marginBottom=0;rounded=0;shadow=0;strokeWidth=1;" vertex="1" parent="1">
          <mxGeometry x="60" y="180" width="270" height="200" as="geometry">
            <mxRectangle x="230" y="140" width="160" height="26" as="alternateBounds" />
          </mxGeometry>
        </mxCell>
        <mxCell id="9t2GHWyr9sQp5O84g_Wf-2" value="id_user  INT NOT NULL AUTO_INCREMENT PK&#xa;&#xa;email VARCHAR(50) not null&#xa;&#xa;" style="text;align=left;verticalAlign=top;spacingLeft=4;spacingRight=4;overflow=hidden;rotatable=0;points=[[0,0.5],[1,0.5]];portConstraint=eastwest;" vertex="1" parent="9t2GHWyr9sQp5O84g_Wf-1">
          <mxGeometry y="26" width="270" height="26" as="geometry" />
        </mxCell>
        <mxCell id="9t2GHWyr9sQp5O84g_Wf-3" value="email VARCHAR (50) not null unique&#xa;&#xa;password VARCHAR(50) not null&#xa;" style="text;align=left;verticalAlign=top;spacingLeft=4;spacingRight=4;overflow=hidden;rotatable=0;points=[[0,0.5],[1,0.5]];portConstraint=eastwest;rounded=0;shadow=0;html=0;" vertex="1" parent="9t2GHWyr9sQp5O84g_Wf-1">
          <mxGeometry y="52" width="270" height="26" as="geometry" />
        </mxCell>
        <mxCell id="9t2GHWyr9sQp5O84g_Wf-4" value="password VARCHAR (50) not null" style="text;html=1;align=center;verticalAlign=middle;resizable=0;points=[];autosize=1;strokeColor=none;fillColor=none;" vertex="1" parent="9t2GHWyr9sQp5O84g_Wf-1">
          <mxGeometry y="78" width="270" height="30" as="geometry" />
        </mxCell>
        <mxCell id="9t2GHWyr9sQp5O84g_Wf-5" value="name VARCHAR (50) not null" style="text;html=1;align=center;verticalAlign=middle;resizable=0;points=[];autosize=1;strokeColor=none;fillColor=none;" vertex="1" parent="9t2GHWyr9sQp5O84g_Wf-1">
          <mxGeometry y="108" width="270" height="30" as="geometry" />
        </mxCell>
        <mxCell id="9t2GHWyr9sQp5O84g_Wf-6" value="firstname VARCHAR (50) not nul" style="text;html=1;align=center;verticalAlign=middle;resizable=0;points=[];autosize=1;strokeColor=none;fillColor=none;" vertex="1" parent="9t2GHWyr9sQp5O84g_Wf-1">
          <mxGeometry y="138" width="270" height="30" as="geometry" />
        </mxCell>
        <mxCell id="9t2GHWyr9sQp5O84g_Wf-7" value="role" style="swimlane;fontStyle=0;align=center;verticalAlign=top;childLayout=stackLayout;horizontal=1;startSize=26;horizontalStack=0;resizeParent=1;resizeLast=0;collapsible=1;marginBottom=0;rounded=0;shadow=0;strokeWidth=1;" vertex="1" parent="1">
          <mxGeometry x="81.5" y="570" width="268.5" height="80" as="geometry">
            <mxRectangle x="340" y="380" width="170" height="26" as="alternateBounds" />
          </mxGeometry>
        </mxCell>
        <mxCell id="9t2GHWyr9sQp5O84g_Wf-8" value="id_role INT NOT NULL AUTO-INCREMENT PK" style="text;align=left;verticalAlign=top;spacingLeft=4;spacingRight=4;overflow=hidden;rotatable=0;points=[[0,0.5],[1,0.5]];portConstraint=eastwest;" vertex="1" parent="9t2GHWyr9sQp5O84g_Wf-7">
          <mxGeometry y="26" width="268.5" height="24" as="geometry" />
        </mxCell>
        <mxCell id="9t2GHWyr9sQp5O84g_Wf-9" value="label VARCHAR(50) not null&amp;nbsp;" style="text;html=1;align=center;verticalAlign=middle;resizable=0;points=[];autosize=1;strokeColor=none;fillColor=none;" vertex="1" parent="9t2GHWyr9sQp5O84g_Wf-7">
          <mxGeometry y="50" width="268.5" height="30" as="geometry" />
        </mxCell>
        <mxCell id="9t2GHWyr9sQp5O84g_Wf-10" value="" style="shape=lineEllipse;perimeter=ellipsePerimeter;whiteSpace=wrap;html=1;backgroundOutline=1;" vertex="1" parent="1">
          <mxGeometry x="100" y="420" width="146" height="85" as="geometry" />
        </mxCell>
        <mxCell id="9t2GHWyr9sQp5O84g_Wf-11" value="possède" style="text;strokeColor=none;align=center;fillColor=none;html=1;verticalAlign=middle;whiteSpace=wrap;rounded=0;fontSize=16;" vertex="1" parent="1">
          <mxGeometry x="143" y="425" width="60" height="30" as="geometry" />
        </mxCell>
        <mxCell id="9t2GHWyr9sQp5O84g_Wf-12" value="" style="shape=lineEllipse;perimeter=ellipsePerimeter;whiteSpace=wrap;html=1;backgroundOutline=1;" vertex="1" parent="1">
          <mxGeometry x="1060" y="400" width="146" height="80" as="geometry" />
        </mxCell>
        <mxCell id="9t2GHWyr9sQp5O84g_Wf-13" value="" style="shape=lineEllipse;perimeter=ellipsePerimeter;whiteSpace=wrap;html=1;backgroundOutline=1;" vertex="1" parent="1">
          <mxGeometry x="690" y="470" width="110" height="80" as="geometry" />
        </mxCell>
        <mxCell id="9t2GHWyr9sQp5O84g_Wf-14" value="" style="shape=lineEllipse;perimeter=ellipsePerimeter;whiteSpace=wrap;html=1;backgroundOutline=1;" vertex="1" parent="1">
          <mxGeometry x="400" y="557" width="110" height="93" as="geometry" />
        </mxCell>
        <mxCell id="9t2GHWyr9sQp5O84g_Wf-15" value="1,1" style="endArrow=none;html=1;rounded=0;fontSize=12;startSize=8;endSize=8;curved=1;entryX=0.457;entryY=-0.02;entryDx=0;entryDy=0;entryPerimeter=0;exitX=0.5;exitY=1;exitDx=0;exitDy=0;" edge="1" parent="1" source="9t2GHWyr9sQp5O84g_Wf-13" target="9t2GHWyr9sQp5O84g_Wf-23">
          <mxGeometry width="50" height="50" relative="1" as="geometry">
            <mxPoint x="700" y="550" as="sourcePoint" />
            <mxPoint x="700" y="640" as="targetPoint" />
          </mxGeometry>
        </mxCell>
        <mxCell id="9t2GHWyr9sQp5O84g_Wf-16" value="" style="endArrow=none;html=1;rounded=0;fontSize=12;startSize=8;endSize=8;curved=1;entryX=0.765;entryY=1.083;entryDx=0;entryDy=0;entryPerimeter=0;" edge="1" parent="1" target="9t2GHWyr9sQp5O84g_Wf-29">
          <mxGeometry width="50" height="50" relative="1" as="geometry">
            <mxPoint x="740" y="470" as="sourcePoint" />
            <mxPoint x="740" y="340" as="targetPoint" />
          </mxGeometry>
        </mxCell>
        <mxCell id="9t2GHWyr9sQp5O84g_Wf-17" value="0,n" style="edgeLabel;html=1;align=center;verticalAlign=middle;resizable=0;points=[];fontSize=12;" connectable="0" vertex="1" parent="9t2GHWyr9sQp5O84g_Wf-16">
          <mxGeometry y="-4" relative="1" as="geometry">
            <mxPoint as="offset" />
          </mxGeometry>
        </mxCell>
        <mxCell id="9t2GHWyr9sQp5O84g_Wf-18" value="" style="endArrow=none;html=1;rounded=0;fontSize=12;startSize=8;endSize=8;curved=1;exitX=0.792;exitY=1.067;exitDx=0;exitDy=0;exitPerimeter=0;" edge="1" parent="1" target="9t2GHWyr9sQp5O84g_Wf-14">
          <mxGeometry width="50" height="50" relative="1" as="geometry">
            <mxPoint x="260.0799999999999" y="380.01" as="sourcePoint" />
            <mxPoint x="330" y="620" as="targetPoint" />
          </mxGeometry>
        </mxCell>
        <mxCell id="9t2GHWyr9sQp5O84g_Wf-19" value="0,n" style="edgeLabel;html=1;align=center;verticalAlign=middle;resizable=0;points=[];fontSize=12;" connectable="0" vertex="1" parent="9t2GHWyr9sQp5O84g_Wf-18">
          <mxGeometry x="-0.0271" y="1" relative="1" as="geometry">
            <mxPoint as="offset" />
          </mxGeometry>
        </mxCell>
        <mxCell id="9t2GHWyr9sQp5O84g_Wf-20" value="" style="endArrow=none;html=1;rounded=0;fontSize=12;startSize=8;endSize=8;curved=1;exitX=0.562;exitY=0.965;exitDx=0;exitDy=0;exitPerimeter=0;" edge="1" parent="1" source="9t2GHWyr9sQp5O84g_Wf-10">
          <mxGeometry width="50" height="50" relative="1" as="geometry">
            <mxPoint x="180" y="510" as="sourcePoint" />
            <mxPoint x="180" y="570" as="targetPoint" />
          </mxGeometry>
        </mxCell>
        <mxCell id="9t2GHWyr9sQp5O84g_Wf-21" value="0,n" style="edgeLabel;html=1;align=center;verticalAlign=middle;resizable=0;points=[];fontSize=12;" connectable="0" vertex="1" parent="9t2GHWyr9sQp5O84g_Wf-20">
          <mxGeometry y="3" relative="1" as="geometry">
            <mxPoint as="offset" />
          </mxGeometry>
        </mxCell>
        <mxCell id="9t2GHWyr9sQp5O84g_Wf-22" value="rédige" style="text;strokeColor=none;fillColor=none;html=1;align=center;verticalAlign=middle;whiteSpace=wrap;rounded=0;fontSize=16;" vertex="1" parent="1">
          <mxGeometry x="425" y="570" width="60" height="30" as="geometry" />
        </mxCell>
        <mxCell id="9t2GHWyr9sQp5O84g_Wf-23" value="RAPPORT_ANIMAL" style="swimlane;fontStyle=0;align=center;verticalAlign=top;childLayout=stackLayout;horizontal=1;startSize=26;horizontalStack=0;resizeParent=1;resizeLast=0;collapsible=1;marginBottom=0;rounded=0;shadow=0;strokeWidth=1;" vertex="1" parent="1">
          <mxGeometry x="492" y="690" width="335" height="210" as="geometry">
            <mxRectangle x="130" y="380" width="160" height="26" as="alternateBounds" />
          </mxGeometry>
        </mxCell>
        <mxCell id="9t2GHWyr9sQp5O84g_Wf-24" value="&#xa;&#xa;type de nourriture VARCHAR NOT NULL&#xa;grammage de nourriture VARCHAR NOT NULL&#xa;&#xa;&#xa;" style="text;align=left;verticalAlign=top;spacingLeft=4;spacingRight=4;overflow=hidden;rotatable=0;points=[[0,0.5],[1,0.5]];portConstraint=eastwest;rounded=0;shadow=0;html=0;" vertex="1" parent="9t2GHWyr9sQp5O84g_Wf-23">
          <mxGeometry y="26" width="335" height="84" as="geometry" />
        </mxCell>
        <mxCell id="9t2GHWyr9sQp5O84g_Wf-25" value="&lt;div&gt;&lt;br&gt;&lt;/div&gt;&lt;div&gt;&lt;br&gt;&lt;/div&gt;id_sante INT NOT NULL&amp;nbsp; AUTO_INCREMENT PK&lt;div&gt;DATE VARCHAR not null&lt;br&gt;&lt;div&gt;&lt;span style=&quot;text-align: left;&quot;&gt;etat VARCHAR (50) not null&lt;/span&gt;&lt;span style=&quot;background-color: initial;&quot;&gt;&lt;br&gt;&lt;/span&gt;&lt;/div&gt;&lt;div&gt;&lt;span style=&quot;background-color: initial;&quot;&gt;detail VARCHAR&lt;/span&gt;&lt;/div&gt;&lt;/div&gt;" style="text;html=1;align=center;verticalAlign=middle;resizable=0;points=[];autosize=1;strokeColor=none;fillColor=none;" vertex="1" parent="9t2GHWyr9sQp5O84g_Wf-23">
          <mxGeometry y="110" width="335" height="100" as="geometry" />
        </mxCell>
        <mxCell id="9t2GHWyr9sQp5O84g_Wf-26" value="ANIMAL" style="swimlane;fontStyle=0;align=center;verticalAlign=top;childLayout=stackLayout;horizontal=1;startSize=26;horizontalStack=0;resizeParent=1;resizeLast=0;collapsible=1;marginBottom=0;rounded=0;shadow=0;strokeWidth=1;" vertex="1" parent="1">
          <mxGeometry x="540" y="195.5" width="260" height="140" as="geometry">
            <mxRectangle x="130" y="380" width="160" height="26" as="alternateBounds" />
          </mxGeometry>
        </mxCell>
        <mxCell id="9t2GHWyr9sQp5O84g_Wf-27" value="id_animal INT  AUTO-INCREMENT not null PK" style="text;align=left;verticalAlign=top;spacingLeft=4;spacingRight=4;overflow=hidden;rotatable=0;points=[[0,0.5],[1,0.5]];portConstraint=eastwest;" vertex="1" parent="9t2GHWyr9sQp5O84g_Wf-26">
          <mxGeometry y="26" width="260" height="26" as="geometry" />
        </mxCell>
        <mxCell id="9t2GHWyr9sQp5O84g_Wf-28" value="prenom  VARCHAR (50) not null&#xa;" style="text;align=left;verticalAlign=top;spacingLeft=4;spacingRight=4;overflow=hidden;rotatable=0;points=[[0,0.5],[1,0.5]];portConstraint=eastwest;rounded=0;shadow=0;html=0;" vertex="1" parent="9t2GHWyr9sQp5O84g_Wf-26">
          <mxGeometry y="52" width="260" height="58" as="geometry" />
        </mxCell>
        <mxCell id="9t2GHWyr9sQp5O84g_Wf-29" value="famille VARCHAR NOT NULL" style="text;align=left;verticalAlign=top;spacingLeft=4;spacingRight=4;overflow=hidden;rotatable=0;points=[[0,0.5],[1,0.5]];portConstraint=eastwest;" vertex="1" parent="9t2GHWyr9sQp5O84g_Wf-26">
          <mxGeometry y="110" width="260" height="30" as="geometry" />
        </mxCell>
        <mxCell id="9t2GHWyr9sQp5O84g_Wf-30" value="obtient" style="text;strokeColor=none;fillColor=none;html=1;align=center;verticalAlign=middle;whiteSpace=wrap;rounded=0;fontSize=16;" vertex="1" parent="1">
          <mxGeometry x="715" y="480" width="60" height="30" as="geometry" />
        </mxCell>
        <mxCell id="9t2GHWyr9sQp5O84g_Wf-31" value="HABITAT" style="swimlane;fontStyle=0;align=center;verticalAlign=top;childLayout=stackLayout;horizontal=1;startSize=26;horizontalStack=0;resizeParent=1;resizeLast=0;collapsible=1;marginBottom=0;rounded=0;shadow=0;strokeWidth=1;" vertex="1" parent="1">
          <mxGeometry x="1020" y="210" width="270" height="140" as="geometry">
            <mxRectangle x="130" y="380" width="160" height="26" as="alternateBounds" />
          </mxGeometry>
        </mxCell>
        <mxCell id="9t2GHWyr9sQp5O84g_Wf-32" value="id_habitat INT AUTO-INCREMENT  not null PK" style="text;align=left;verticalAlign=top;spacingLeft=4;spacingRight=4;overflow=hidden;rotatable=0;points=[[0,0.5],[1,0.5]];portConstraint=eastwest;" vertex="1" parent="9t2GHWyr9sQp5O84g_Wf-31">
          <mxGeometry y="26" width="270" height="26" as="geometry" />
        </mxCell>
        <mxCell id="9t2GHWyr9sQp5O84g_Wf-33" value="nom  VARCHAR (50) not null&#xa;&#xa;description VARCHAR (255) not null" style="text;align=left;verticalAlign=top;spacingLeft=4;spacingRight=4;overflow=hidden;rotatable=0;points=[[0,0.5],[1,0.5]];portConstraint=eastwest;rounded=0;shadow=0;html=0;" vertex="1" parent="9t2GHWyr9sQp5O84g_Wf-31">
          <mxGeometry y="52" width="270" height="58" as="geometry" />
        </mxCell>
        <mxCell id="9t2GHWyr9sQp5O84g_Wf-34" value="&lt;font style=&quot;font-size: 12px;&quot;&gt;detail VARCHAR (50)&lt;/font&gt;" style="text;html=1;align=center;verticalAlign=middle;resizable=0;points=[];autosize=1;strokeColor=none;fillColor=none;fontSize=16;" vertex="1" parent="9t2GHWyr9sQp5O84g_Wf-31">
          <mxGeometry y="110" width="270" height="30" as="geometry" />
        </mxCell>
        <mxCell id="9t2GHWyr9sQp5O84g_Wf-35" value="IMAGE" style="swimlane;fontStyle=0;align=center;verticalAlign=top;childLayout=stackLayout;horizontal=1;startSize=26;horizontalStack=0;resizeParent=1;resizeLast=0;collapsible=1;marginBottom=0;rounded=0;shadow=0;strokeWidth=1;" vertex="1" parent="1">
          <mxGeometry x="1061" y="530" width="389" height="110" as="geometry">
            <mxRectangle x="130" y="380" width="160" height="26" as="alternateBounds" />
          </mxGeometry>
        </mxCell>
        <mxCell id="9t2GHWyr9sQp5O84g_Wf-36" value="id_image VARCHAR(chemin dossier) AUTO-INCREMENT not null PK&#xa;&#xa;description  VARCHAR (50)&#xa;" style="text;align=left;verticalAlign=top;spacingLeft=4;spacingRight=4;overflow=hidden;rotatable=0;points=[[0,0.5],[1,0.5]];portConstraint=eastwest;" vertex="1" parent="9t2GHWyr9sQp5O84g_Wf-35">
          <mxGeometry y="26" width="389" height="54" as="geometry" />
        </mxCell>
        <mxCell id="9t2GHWyr9sQp5O84g_Wf-37" value="&lt;font style=&quot;font-size: 12px;&quot;&gt;image_data VARCHAR&lt;/font&gt;" style="text;html=1;align=center;verticalAlign=middle;resizable=0;points=[];autosize=1;strokeColor=none;fillColor=none;fontSize=16;" vertex="1" parent="9t2GHWyr9sQp5O84g_Wf-35">
          <mxGeometry y="80" width="389" height="30" as="geometry" />
        </mxCell>
        <mxCell id="9t2GHWyr9sQp5O84g_Wf-38" value="comporte" style="text;strokeColor=none;fillColor=none;html=1;align=center;verticalAlign=middle;whiteSpace=wrap;rounded=0;fontSize=16;" vertex="1" parent="1">
          <mxGeometry x="1103" y="400" width="60" height="30" as="geometry" />
        </mxCell>
        <mxCell id="9t2GHWyr9sQp5O84g_Wf-39" value="" style="endArrow=none;html=1;rounded=0;fontSize=12;startSize=8;endSize=8;curved=1;" edge="1" parent="1">
          <mxGeometry width="50" height="50" relative="1" as="geometry">
            <mxPoint x="1140" y="400" as="sourcePoint" />
            <mxPoint x="1140" y="350" as="targetPoint" />
          </mxGeometry>
        </mxCell>
        <mxCell id="9t2GHWyr9sQp5O84g_Wf-40" value="0,n" style="edgeLabel;html=1;align=center;verticalAlign=middle;resizable=0;points=[];fontSize=12;" connectable="0" vertex="1" parent="9t2GHWyr9sQp5O84g_Wf-39">
          <mxGeometry y="-3" relative="1" as="geometry">
            <mxPoint as="offset" />
          </mxGeometry>
        </mxCell>
        <mxCell id="9t2GHWyr9sQp5O84g_Wf-41" value="" style="endArrow=none;html=1;rounded=0;fontSize=12;startSize=8;endSize=8;curved=1;entryX=0.548;entryY=1.05;entryDx=0;entryDy=0;entryPerimeter=0;" edge="1" parent="1" target="9t2GHWyr9sQp5O84g_Wf-12">
          <mxGeometry width="50" height="50" relative="1" as="geometry">
            <mxPoint x="1140" y="530" as="sourcePoint" />
            <mxPoint x="960" y="380" as="targetPoint" />
          </mxGeometry>
        </mxCell>
        <mxCell id="9t2GHWyr9sQp5O84g_Wf-42" value="0,n" style="edgeLabel;html=1;align=center;verticalAlign=middle;resizable=0;points=[];fontSize=12;" connectable="0" vertex="1" parent="9t2GHWyr9sQp5O84g_Wf-41">
          <mxGeometry x="0.1554" relative="1" as="geometry">
            <mxPoint as="offset" />
          </mxGeometry>
        </mxCell>
        <mxCell id="9t2GHWyr9sQp5O84g_Wf-43" value="MCD modèle conceptuel de données&amp;nbsp;" style="text;strokeColor=none;fillColor=none;html=1;align=center;verticalAlign=middle;whiteSpace=wrap;rounded=0;fontSize=16;" vertex="1" parent="1">
          <mxGeometry x="360" y="10" width="300" height="30" as="geometry" />
        </mxCell>
        <mxCell id="9t2GHWyr9sQp5O84g_Wf-44" value="" style="endArrow=none;html=1;rounded=0;fontSize=12;startSize=8;endSize=8;curved=1;" edge="1" parent="1">
          <mxGeometry width="50" height="50" relative="1" as="geometry">
            <mxPoint x="180" y="420" as="sourcePoint" />
            <mxPoint x="180" y="380" as="targetPoint" />
          </mxGeometry>
        </mxCell>
        <mxCell id="9t2GHWyr9sQp5O84g_Wf-45" value="1;1" style="edgeLabel;html=1;align=center;verticalAlign=middle;resizable=0;points=[];fontSize=12;" connectable="0" vertex="1" parent="9t2GHWyr9sQp5O84g_Wf-44">
          <mxGeometry x="0.0344" y="-3" relative="1" as="geometry">
            <mxPoint as="offset" />
          </mxGeometry>
        </mxCell>
        <mxCell id="9t2GHWyr9sQp5O84g_Wf-46" value="" style="shape=lineEllipse;perimeter=ellipsePerimeter;whiteSpace=wrap;html=1;backgroundOutline=1;" vertex="1" parent="1">
          <mxGeometry x="834" y="230" width="146" height="80" as="geometry" />
        </mxCell>
        <mxCell id="9t2GHWyr9sQp5O84g_Wf-47" value="détient" style="text;strokeColor=none;fillColor=none;html=1;align=center;verticalAlign=middle;whiteSpace=wrap;rounded=0;fontSize=16;" vertex="1" parent="1">
          <mxGeometry x="877" y="240" width="60" height="30" as="geometry" />
        </mxCell>
        <mxCell id="9t2GHWyr9sQp5O84g_Wf-48" value="" style="endArrow=none;html=1;rounded=0;fontSize=12;startSize=8;endSize=8;curved=1;entryX=0;entryY=0.5;entryDx=0;entryDy=0;exitX=0.945;exitY=0.763;exitDx=0;exitDy=0;exitPerimeter=0;" edge="1" parent="1" source="9t2GHWyr9sQp5O84g_Wf-46" target="9t2GHWyr9sQp5O84g_Wf-33">
          <mxGeometry width="50" height="50" relative="1" as="geometry">
            <mxPoint x="950" y="430" as="sourcePoint" />
            <mxPoint x="1000" y="380" as="targetPoint" />
          </mxGeometry>
        </mxCell>
        <mxCell id="9t2GHWyr9sQp5O84g_Wf-49" value="0,n" style="edgeLabel;html=1;align=center;verticalAlign=middle;resizable=0;points=[];fontSize=12;" connectable="0" vertex="1" parent="9t2GHWyr9sQp5O84g_Wf-48">
          <mxGeometry x="-0.064" relative="1" as="geometry">
            <mxPoint as="offset" />
          </mxGeometry>
        </mxCell>
        <mxCell id="9t2GHWyr9sQp5O84g_Wf-50" value="" style="endArrow=none;html=1;rounded=0;fontSize=12;startSize=8;endSize=8;curved=1;exitX=1;exitY=0.5;exitDx=0;exitDy=0;entryX=0.062;entryY=0.763;entryDx=0;entryDy=0;entryPerimeter=0;" edge="1" parent="1" source="9t2GHWyr9sQp5O84g_Wf-28" target="9t2GHWyr9sQp5O84g_Wf-46">
          <mxGeometry width="50" height="50" relative="1" as="geometry">
            <mxPoint x="950" y="430" as="sourcePoint" />
            <mxPoint x="1000" y="380" as="targetPoint" />
          </mxGeometry>
        </mxCell>
        <mxCell id="9t2GHWyr9sQp5O84g_Wf-51" value="1,1" style="edgeLabel;html=1;align=center;verticalAlign=middle;resizable=0;points=[];fontSize=12;" connectable="0" vertex="1" parent="9t2GHWyr9sQp5O84g_Wf-50">
          <mxGeometry x="-0.0803" relative="1" as="geometry">
            <mxPoint as="offset" />
          </mxGeometry>
        </mxCell>
        <mxCell id="9t2GHWyr9sQp5O84g_Wf-52" value="" style="endArrow=none;html=1;rounded=0;exitX=0.996;exitY=0.967;exitDx=0;exitDy=0;exitPerimeter=0;" edge="1" parent="1" source="9t2GHWyr9sQp5O84g_Wf-4">
          <mxGeometry width="50" height="50" relative="1" as="geometry">
            <mxPoint x="330" y="270" as="sourcePoint" />
            <mxPoint x="540" y="286" as="targetPoint" />
            <Array as="points">
              <mxPoint x="420" y="286" />
            </Array>
          </mxGeometry>
        </mxCell>
        <mxCell id="9t2GHWyr9sQp5O84g_Wf-53" value="0,n" style="edgeLabel;html=1;align=center;verticalAlign=middle;resizable=0;points=[];" connectable="0" vertex="1" parent="9t2GHWyr9sQp5O84g_Wf-52">
          <mxGeometry x="-0.8161" y="-2" relative="1" as="geometry">
            <mxPoint x="4" y="-2" as="offset" />
          </mxGeometry>
        </mxCell>
        <mxCell id="9t2GHWyr9sQp5O84g_Wf-54" value="1,n" style="edgeLabel;html=1;align=center;verticalAlign=middle;resizable=0;points=[];" connectable="0" vertex="1" parent="9t2GHWyr9sQp5O84g_Wf-52">
          <mxGeometry x="0.8095" relative="1" as="geometry">
            <mxPoint as="offset" />
          </mxGeometry>
        </mxCell>
        <mxCell id="9t2GHWyr9sQp5O84g_Wf-55" value="" style="shape=lineEllipse;perimeter=ellipsePerimeter;whiteSpace=wrap;html=1;backgroundOutline=1;" vertex="1" parent="1">
          <mxGeometry x="350" y="210" width="146" height="90" as="geometry" />
        </mxCell>
        <mxCell id="9t2GHWyr9sQp5O84g_Wf-56" value="&lt;font style=&quot;font-size: 18px;&quot;&gt;nourrit&lt;/font&gt;" style="text;strokeColor=none;align=center;fillColor=none;html=1;verticalAlign=middle;whiteSpace=wrap;rounded=0;" vertex="1" parent="1">
          <mxGeometry x="390" y="220" width="60" height="30" as="geometry" />
        </mxCell>
        <mxCell id="9t2GHWyr9sQp5O84g_Wf-57" value="" style="endArrow=none;html=1;rounded=0;exitX=1;exitY=1;exitDx=0;exitDy=0;entryX=0.006;entryY=0.226;entryDx=0;entryDy=0;entryPerimeter=0;" edge="1" parent="1" source="9t2GHWyr9sQp5O84g_Wf-14" target="9t2GHWyr9sQp5O84g_Wf-24">
          <mxGeometry width="50" height="50" relative="1" as="geometry">
            <mxPoint x="500" y="640" as="sourcePoint" />
            <mxPoint x="590" y="680" as="targetPoint" />
            <Array as="points" />
          </mxGeometry>
        </mxCell>
        <mxCell id="9t2GHWyr9sQp5O84g_Wf-58" value="1,1" style="edgeLabel;html=1;align=center;verticalAlign=middle;resizable=0;points=[];" connectable="0" vertex="1" parent="9t2GHWyr9sQp5O84g_Wf-57">
          <mxGeometry x="-0.0159" y="1" relative="1" as="geometry">
            <mxPoint as="offset" />
          </mxGeometry>
        </mxCell>
        <mxCell id="9t2GHWyr9sQp5O84g_Wf-59" value="1,n" style="edgeLabel;html=1;align=center;verticalAlign=middle;resizable=0;points=[];" connectable="0" vertex="1" parent="9t2GHWyr9sQp5O84g_Wf-57">
          <mxGeometry x="0.0569" relative="1" as="geometry">
            <mxPoint as="offset" />
          </mxGeometry>
        </mxCell>
        <mxCell id="9t2GHWyr9sQp5O84g_Wf-60" value="PK : PRIMARY KEY" style="text;html=1;align=center;verticalAlign=middle;resizable=0;points=[];autosize=1;strokeColor=none;fillColor=none;" vertex="1" parent="1">
          <mxGeometry x="90" y="908" width="130" height="30" as="geometry" />
        </mxCell>
        <mxCell id="9t2GHWyr9sQp5O84g_Wf-61" value="INT : INTEGER" style="text;html=1;align=center;verticalAlign=middle;resizable=0;points=[];autosize=1;strokeColor=none;fillColor=none;" vertex="1" parent="1">
          <mxGeometry x="90" y="938" width="110" height="30" as="geometry" />
        </mxCell>
      </root>
    </mxGraphModel>
  </diagram>
</mxfile>
